[ConversionWorker] Logging FFmpeg output to: ffmpeg_logs\ffmpeg_conversion_高冷_02_wav_20250525_173253.log\n[ConversionWorker] Getting duration with command: ffprobe -v error -show_entries format=duration -of default=noprint_wrappers=1:nokey=1 Z:\Story\高冷\高冷 02.wav\n[ConversionWorker] Duration for 高冷 02.wav: 1924536 ms\n[ConversionWorker] Starting FFmpeg for 高冷 02.wav: ffmpeg -i Z:\Story\高冷\高冷 02.wav -b:a 128k -vn -y -loglevel error -stats -progress pipe:1 Z:\Story\高冷\高冷 02.mp3\n[ConversionWorker] FFmpeg process started. PID: 25992\n[STDOUT RAW] bitrate= 123.7kbits/s\n[STDOUT RAW] total_size=76844\n[STDOUT RAW] out_time_us=4969958\n[STDOUT RAW] out_time_ms=4969958\n[STDOUT RAW] out_time=00:00:04.969958\n[STDOUT RAW] dup_frames=0\n[STDOUT RAW] drop_frames=0\n[STDOUT RAW] speed=9.62x\n[STDOUT RAW] progress=continue\n[STDERR RAW] size=      75KiB time=00:00:04.96 bitrate= 123.7kbits/s speed=9.62x\n[STDOUT RAW] bitrate= 125.9kbits/s\n[STDOUT RAW] total_size=159020\n[STDOUT RAW] out_time_us=10105958\n[STDOUT RAW] out_time_ms=10105958\n[STDOUT RAW] out_time=00:00:10.105958\n[STDOUT RAW] dup_frames=0\n[STDOUT RAW] drop_frames=0\n[STDOUT RAW] speed= 9.8x\n[STDOUT RAW] progress=continue\n[STDERR RAW] size=     155KiB time=00:00:10.10 bitrate= 125.9kbits/s speed= 9.8x\n[STDOUT RAW] bitrate= 126.6kbits/s\n[STDOUT RAW] total_size=233516\n[STDOUT RAW] out_time_us=14761958\n[STDOUT RAW] out_time_ms=14761958\n[STDOUT RAW] out_time=00:00:14.761958\n[STDOUT RAW] dup_frames=0\n[STDOUT RAW] drop_frames=0\n[STDOUT RAW] speed=9.59x\n[STDOUT RAW] progress=continue\n[STDERR RAW] size=     228KiB time=00:00:14.76 bitrate= 126.6kbits/s speed=9.59x\n[STDOUT RAW] bitrate= 103.0kbits/s\n[STDOUT RAW] total_size=1048576\n[STDOUT RAW] out_time_us=81433958\n[STDOUT RAW] out_time_ms=81433958\n[STDOUT RAW] out_time=00:01:21.433958\n[STDOUT RAW] dup_frames=0\n[STDOUT RAW] drop_frames=0\n[STDOUT RAW] speed=39.7x\n[STDOUT RAW] progress=continue\n[STDERR RAW] size=    1024KiB time=00:01:21.43 bitrate= 103.0kbits/s speed=39.7x\n[STDOUT RAW] bitrate= 123.5kbits/s\n[STDOUT RAW] total_size=2883584\n[STDOUT RAW] out_time_us=186865958\n[STDOUT RAW] out_time_ms=186865958\n[STDOUT RAW] out_time=00:03:06.865958\n[STDOUT RAW] dup_frames=0\n[STDOUT RAW] drop_frames=0\n[STDOUT RAW] speed=72.6x\n[STDOUT RAW] progress=continue\n[STDERR RAW] size=    2816KiB time=00:03:06.86 bitrate= 123.5kbits/s speed=72.6x\n[STDOUT RAW] bitrate= 125.1kbits/s\n[STDOUT RAW] total_size=4456448\n[STDOUT RAW] out_time_us=284905958\n[STDOUT RAW] out_time_ms=284905958\n[STDOUT RAW] out_time=00:04:44.905958\n[STDOUT RAW] dup_frames=0\n[STDOUT RAW] drop_frames=0\n[STDOUT RAW] speed=92.1x\n[STDOUT RAW] progress=continue\n[STDERR RAW] size=    4352KiB time=00:04:44.90 bitrate= 125.1kbits/s speed=92.1x\n[STDOUT RAW] bitrate= 126.3kbits/s\n[STDOUT RAW] total_size=6029312\n[STDOUT RAW] out_time_us=381913958\n[STDOUT RAW] out_time_ms=381913958\n[STDOUT RAW] out_time=00:06:21.913958\n[STDOUT RAW] dup_frames=0\n[STDOUT RAW] drop_frames=0\n[STDOUT RAW] speed= 106x\n[STDOUT RAW] progress=continue\n[STDERR RAW] size=    5888KiB time=00:06:21.91 bitrate= 126.3kbits/s speed= 106x\n[STDOUT RAW] bitrate= 125.6kbits/s\n[STDOUT RAW] total_size=7340032\n[STDOUT RAW] out_time_us=467617958\n[STDOUT RAW] out_time_ms=467617958\n[STDOUT RAW] out_time=00:07:47.617958\n[STDOUT RAW] dup_frames=0\n[STDOUT RAW] drop_frames=0\n[STDOUT RAW] speed= 114x\n[STDOUT RAW] progress=continue\n[STDERR RAW] size=    7168KiB time=00:07:47.61 bitrate= 125.6kbits/s speed= 114x\n[STDOUT RAW] bitrate= 124.2kbits/s\n[STDOUT RAW] total_size=8650752\n[STDOUT RAW] out_time_us=557185958\n[STDOUT RAW] out_time_ms=557185958\n[STDOUT RAW] out_time=00:09:17.185958\n[STDOUT RAW] dup_frames=0\n[STDOUT RAW] drop_frames=0\n[STDOUT RAW] speed= 120x\n[STDOUT RAW] progress=continue\n[STDERR RAW] size=    8448KiB time=00:09:17.18 bitrate= 124.2kbits/s speed= 120x\n[STDOUT RAW] bitrate= 125.6kbits/s\n[STDOUT RAW] total_size=10223616\n[STDOUT RAW] out_time_us=651409958\n[STDOUT RAW] out_time_ms=651409958\n[STDOUT RAW] out_time=00:10:51.409958\n[STDOUT RAW] dup_frames=0\n[STDOUT RAW] drop_frames=0\n[STDOUT RAW] speed= 127x\n[STDOUT RAW] progress=continue\n[STDERR RAW] size=    9984KiB time=00:10:51.40 bitrate= 125.6kbits/s speed= 127x\n[STDOUT RAW] bitrate= 126.8kbits/s\n[STDOUT RAW] total_size=11796480\n[STDOUT RAW] out_time_us=744505958\n[STDOUT RAW] out_time_ms=744505958\n[STDOUT RAW] out_time=00:12:24.505958\n[STDOUT RAW] dup_frames=0\n[STDOUT RAW] drop_frames=0\n[STDOUT RAW] speed= 131x\n[STDOUT RAW] progress=continue\n[STDERR RAW] size=   11520KiB time=00:12:24.50 bitrate= 126.8kbits/s speed= 131x\n[STDOUT RAW] bitrate= 127.3kbits/s\n[STDOUT RAW] total_size=13369344\n[STDOUT RAW] out_time_us=840001958\n[STDOUT RAW] out_time_ms=840001958\n[STDOUT RAW] out_time=00:14:00.001958\n[STDOUT RAW] dup_frames=0\n[STDOUT RAW] drop_frames=0\n[STDOUT RAW] speed= 136x\n[STDOUT RAW] progress=continue\n[STDERR RAW] size=   13056KiB time=00:14:00.00 bitrate= 127.3kbits/s speed= 136x\n[STDOUT RAW] bitrate= 126.9kbits/s\n[STDOUT RAW] total_size=14680064\n[STDOUT RAW] out_time_us=925249958\n[STDOUT RAW] out_time_ms=925249958\n[STDOUT RAW] out_time=00:15:25.249958\n[STDOUT RAW] dup_frames=0\n[STDOUT RAW] drop_frames=0\n[STDOUT RAW] speed= 138x\n[STDOUT RAW] progress=continue\n[STDERR RAW] size=   14336KiB time=00:15:25.24 bitrate= 126.9kbits/s speed= 138x\n[STDOUT RAW] bitrate= 125.9kbits/s\n[STDOUT RAW] total_size=15728640\n[STDOUT RAW] out_time_us=999553958\n[STDOUT RAW] out_time_ms=999553958\n[STDOUT RAW] out_time=00:16:39.553958\n[STDOUT RAW] dup_frames=0\n[STDOUT RAW] drop_frames=0\n[STDOUT RAW] speed= 139x\n[STDOUT RAW] progress=continue\n[STDERR RAW] size=   15360KiB time=00:16:39.55 bitrate= 125.9kbits/s speed= 139x\n[STDOUT RAW] bitrate= 126.2kbits/s\n[STDOUT RAW] total_size=17039360\n[STDOUT RAW] out_time_us=1080457958\n[STDOUT RAW] out_time_ms=1080457958\n[STDOUT RAW] out_time=00:18:00.457958\n[STDOUT RAW] dup_frames=0\n[STDOUT RAW] drop_frames=0\n[STDOUT RAW] speed= 140x\n[STDOUT RAW] progress=continue\n[STDERR RAW] size=   16640KiB time=00:18:00.45 bitrate= 126.2kbits/s speed= 140x\n[STDOUT RAW] bitrate= 127.5kbits/s\n[STDOUT RAW] total_size=18612224\n[STDOUT RAW] out_time_us=1167937958\n[STDOUT RAW] out_time_ms=1167937958\n[STDOUT RAW] out_time=00:19:27.937958\n[STDOUT RAW] dup_frames=0\n[STDOUT RAW] drop_frames=0\n[STDOUT RAW] speed= 141x\n[STDOUT RAW] progress=continue\n[STDERR RAW] size=   18176KiB time=00:19:27.93 bitrate= 127.5kbits/s speed= 141x\n[STDOUT RAW] bitrate= 127.7kbits/s\n[STDOUT RAW] total_size=20185088\n[STDOUT RAW] out_time_us=1264513958\n[STDOUT RAW] out_time_ms=1264513958\n[STDOUT RAW] out_time=00:21:04.513958\n[STDOUT RAW] dup_frames=0\n[STDOUT RAW] drop_frames=0\n[STDOUT RAW] speed= 144x\n[STDOUT RAW] progress=continue\n[STDERR RAW] size=   19712KiB time=00:21:04.51 bitrate= 127.7kbits/s speed= 144x\n[STDOUT RAW] bitrate= 126.4kbits/s\n[STDOUT RAW] total_size=21495808\n[STDOUT RAW] out_time_us=1360009958\n[STDOUT RAW] out_time_ms=1360009958\n[STDOUT RAW] out_time=00:22:40.009958\n[STDOUT RAW] dup_frames=0\n[STDOUT RAW] drop_frames=0\n[STDOUT RAW] speed= 146x\n[STDOUT RAW] progress=continue\n[STDERR RAW] size=   20992KiB time=00:22:40.00 bitrate= 126.4kbits/s speed= 146x\n[STDOUT RAW] bitrate= 126.5kbits/s\n[STDOUT RAW] total_size=23068672\n[STDOUT RAW] out_time_us=1458313958\n[STDOUT RAW] out_time_ms=1458313958\n[STDOUT RAW] out_time=00:24:18.313958\n[STDOUT RAW] dup_frames=0\n[STDOUT RAW] drop_frames=0\n[STDOUT RAW] speed= 149x\n[STDOUT RAW] progress=continue\n[STDERR RAW] size=   22528KiB time=00:24:18.31 bitrate= 126.5kbits/s speed= 149x\n[STDOUT RAW] bitrate= 126.9kbits/s\n[STDOUT RAW] total_size=24641536\n[STDOUT RAW] out_time_us=1553857958\n[STDOUT RAW] out_time_ms=1553857958\n[STDOUT RAW] out_time=00:25:53.857958\n[STDOUT RAW] dup_frames=0\n[STDOUT RAW] drop_frames=0\n[STDOUT RAW] speed= 150x\n[STDOUT RAW] progress=continue\n[STDERR RAW] size=   24064KiB time=00:25:53.85 bitrate= 126.9kbits/s speed= 150x\n[STDOUT RAW] bitrate= 127.1kbits/s\n[STDOUT RAW] total_size=26214400\n[STDOUT RAW] out_time_us=1649521958\n[STDOUT RAW] out_time_ms=1649521958\n[STDOUT RAW] out_time=00:27:29.521958\n[STDOUT RAW] dup_frames=0\n[STDOUT RAW] drop_frames=0\n[STDOUT RAW] speed= 152x\n[STDOUT RAW] progress=continue\n[STDERR RAW] size=   25600KiB time=00:27:29.52 bitrate= 127.1kbits/s speed= 152x\n[STDOUT RAW] bitrate= 127.4kbits/s\n[STDOUT RAW] total_size=27787264\n[STDOUT RAW] out_time_us=1744393958\n[STDOUT RAW] out_time_ms=1744393958\n[STDOUT RAW] out_time=00:29:04.393958\n[STDOUT RAW] dup_frames=0\n[STDOUT RAW] drop_frames=0\n[STDOUT RAW] speed= 154x\n[STDOUT RAW] progress=continue\n[STDERR RAW] size=   27136KiB time=00:29:04.39 bitrate= 127.4kbits/s speed= 154x\n[STDOUT RAW] bitrate= 128.0kbits/s\n[STDOUT RAW] total_size=29360128\n[STDOUT RAW] out_time_us=1835353958\n[STDOUT RAW] out_time_ms=1835353958\n[STDOUT RAW] out_time=00:30:35.353958\n[STDOUT RAW] dup_frames=0\n[STDOUT RAW] drop_frames=0\n[STDOUT RAW] speed= 155x\n[STDOUT RAW] progress=continue\n[STDERR RAW] size=   28672KiB time=00:30:35.35 bitrate= 128.0kbits/s speed= 155x\n[STDOUT RAW] bitrate= 128.0kbits/s\n[STDOUT RAW] total_size=30794156\n[STDOUT RAW] out_time_us=1924537292\n[STDOUT RAW] out_time_ms=1924537292\n[STDOUT RAW] out_time=00:32:04.537292\n[STDOUT RAW] dup_frames=0\n[STDOUT RAW] drop_frames=0\n[STDOUT RAW] speed= 156x\n[STDERR RAW] size=   30072KiB time=00:32:04.53 bitrate= 128.0kbits/s speed= 156x\n[STDOUT RAW] progress=end\n[ConversionWorker] STDERR pipe closed signal received.\n[ConversionWorker] Detected 'progress=end' for 高冷 02.wav\n[ConversionWorker] STDOUT pipe closed signal received.\n[ConversionWorker] Process finished and both stream pipes closed. Exiting loop.\n[ConversionWorker] Waiting for reader threads to join...\n[ConversionWorker] FFmpeg process ended. Return code: 0\n[ConversionWorker] Closing FFmpeg log file.\n